<?xml version="1.0" encoding="UTF-8"?>
<!DOCTYPE svg PUBLIC "-//W3C//DTD SVG 1.1//EN" "http://www.w3.org/Graphics/SVG/1.1/DTD/svg11.dtd">
<!-- Creator: CorelDRAW Home & Student X8 -->
<svg xmlns="http://www.w3.org/2000/svg" xml:space="preserve" width="512px" height="78px" version="1.1" style="shape-rendering:geometricPrecision; text-rendering:geometricPrecision; image-rendering:optimizeQuality; fill-rule:evenodd; clip-rule:evenodd"
viewBox="0 0 451 69"
 xmlns:xlink="http://www.w3.org/1999/xlink">
 <defs>
  <style type="text/css">
   <![CDATA[
    .fil0 {fill:black}
    .fil1 {fill:black;fill-rule:nonzero}
   ]]>
  </style>
 </defs>
 <g id="Layer_x0020_4">
  <metadata id="CorelCorpID_0Corel-Layer"/>
  <path class="fil0" d="M16 56l0 2c0,1 0,1 0,1 2,6 14,10 28,10 15,0 27,-4 29,-10 0,0 0,0 0,-1l0 -2c-2,0 -4,1 -6,1 -4,0 -7,-1 -10,-3 -4,1 -8,1 -13,1 -4,0 -8,0 -12,-1 -3,2 -6,3 -10,3 -2,0 -4,-1 -6,-1zm56 -46c-1,-5 -11,-10 -28,-10 -17,0 -26,5 -28,10 0,0 0,0 0,1l0 0 0 2c1,1 2,2 4,3 1,0 1,0 2,0 4,0 8,1 12,4 3,0 7,0 10,0 4,0 7,0 10,0 4,-3 8,-5 13,-5 1,0 2,1 3,1 1,-1 2,-2 3,-3l0 -2 0 0c0,-1 0,-1 -1,-1zm-56 14l0 2 0 1 0 0 0 2c3,3 10,5 19,6 0,-7 -6,-12 -13,-12 -2,0 -4,0 -6,1zm26 12c1,0 1,0 1,0 0,0 1,0 1,0 1,0 1,0 2,0l0 0c0,-2 1,-4 1,-6l-6 0c1,2 1,4 1,6zm12 -1c9,-1 16,-3 19,-6l0 -2 0 0 0 -1 0 -2c-2,0 -4,-1 -6,-1 -7,0 -13,5 -13,12zm-8 4c0,0 -1,0 -2,0 0,0 -1,0 -2,0 0,5 -3,9 -6,12 3,0 6,0 8,0 3,0 6,0 8,0 -3,-3 -5,-7 -6,-12zm-11 0c-5,-1 -10,-2 -13,-3 -2,-1 -4,-2 -6,-3l0 9 0 0 0 1 0 1c2,2 5,4 9,5 5,-1 9,-5 10,-10zm29 10c4,-2 7,-3 9,-5l0 -1 0 -1 0 0 0 -9c-2,1 -4,2 -6,3 -3,1 -8,2 -13,3 1,5 5,9 10,10z"/>
  <path class="fil1" d="M130 41c0,2 0,3 -1,5 -1,1 -1,2 -3,3 -1,1 -2,2 -3,2 -2,1 -3,1 -5,1 -1,0 -2,0 -3,0 -1,-1 -2,-1 -3,-1 -1,-1 -1,-1 -2,-1 0,0 -1,-1 -1,-1 0,0 0,-1 0,-1 0,0 -1,-1 -1,-1 0,-1 1,-1 1,-1 0,-1 0,-1 0,-1 0,0 0,0 0,0 0,0 0,0 0,0 1,0 1,0 1,0 1,0 1,1 2,1 1,1 2,1 3,1 1,1 2,1 3,1 1,0 2,0 3,-1 1,0 2,0 2,-1 1,0 1,-1 2,-2 0,-1 0,-1 0,-2 0,-1 0,-2 -1,-3 0,-1 -1,-1 -1,-2 -1,-1 -2,-1 -3,-1 -1,-1 -2,-1 -3,-2 -1,0 -2,-1 -3,-1 -1,-1 -1,-2 -2,-3 -1,0 -2,-1 -2,-2 0,-1 -1,-3 -1,-4 0,-2 1,-3 1,-4 1,-1 1,-2 2,-3 1,-1 2,-2 4,-2 1,0 2,-1 4,-1 1,0 1,0 2,1 1,0 2,0 2,0 1,0 2,1 2,1 1,0 1,0 1,1 0,0 1,0 1,0 0,0 0,0 0,0 0,1 0,1 0,1 0,0 0,0 0,1 0,0 0,0 0,1 0,0 0,0 0,0 0,1 0,1 -1,1 0,0 0,0 0,0 0,0 0,0 -1,0 0,-1 -1,-1 -1,-1 -1,-1 -2,-1 -2,-1 -1,-1 -2,-1 -3,-1 -1,0 -2,0 -3,1 -1,0 -1,0 -2,1 0,0 0,1 -1,1 0,1 0,2 0,2 0,1 0,2 1,3 0,1 1,1 1,2 1,1 2,1 3,2 1,0 2,0 3,1 1,0 2,1 3,2 1,0 2,1 2,2 1,0 2,1 2,2 1,1 1,3 1,4z"/>
  <path id="1" class="fil1" d="M167 55c0,0 0,0 0,1 0,0 -1,0 -1,0 0,0 0,1 0,1 0,0 0,0 0,0 -1,0 -1,0 -2,-1 -1,0 -2,-1 -3,-1 -1,-1 -2,-1 -3,-2 -1,-1 -2,-2 -4,-3 0,0 -1,1 -3,1 -1,1 -3,1 -5,1 -2,0 -4,-1 -6,-1 -2,-1 -4,-2 -5,-4 -1,-1 -2,-3 -3,-6 0,-2 -1,-5 -1,-8 0,-3 1,-5 1,-8 1,-2 2,-4 3,-6 2,-1 3,-2 5,-3 2,-1 5,-2 7,-2 3,0 5,1 7,2 2,0 3,1 5,3 1,2 2,4 2,6 1,2 1,5 1,8 0,1 0,3 0,4 0,1 0,3 -1,4 0,1 -1,2 -1,3 -1,1 -1,2 -2,3 1,1 2,2 3,3 1,0 2,1 3,1 0,1 1,1 1,1 1,0 1,0 1,0 0,1 0,1 1,1 0,1 0,1 0,2zm-9 -22c0,-2 -1,-4 -1,-6 0,-2 -1,-3 -2,-4 -1,-2 -2,-3 -3,-3 -1,-1 -3,-2 -5,-2 -2,0 -4,1 -5,2 -1,0 -3,1 -3,3 -1,1 -2,3 -2,4 -1,2 -1,4 -1,6 0,2 0,4 1,6 0,2 1,3 1,4 1,2 2,3 4,4 1,0 3,1 5,1 2,0 3,-1 5,-2 1,0 2,-1 3,-3 1,-1 2,-3 2,-4 0,-2 1,-4 1,-6z"/>
  <path id="2" class="fil1" d="M185 49c0,1 0,1 0,1 0,0 0,1 0,1 0,0 0,0 0,0 0,0 -1,0 -1,0l-15 0c-1,0 -1,0 -1,0 -1,0 -1,-1 -1,-2l0 -33c0,-1 0,-1 0,-1 0,0 0,0 1,0 0,0 0,0 0,0 1,0 1,0 1,0 1,0 1,0 2,0 0,0 0,0 0,0 0,0 1,0 1,0 0,0 0,0 0,1l0 31 12 0c0,0 1,0 1,0 0,0 0,0 0,1 0,0 0,0 0,0 0,1 0,1 0,1z"/>
  <path id="3" class="fil1" d="M217 50c0,1 0,1 0,1 0,0 0,0 -1,0 0,0 0,0 -1,0 0,0 0,1 -1,1 -1,0 -1,-1 -1,-1 -1,0 -1,0 -1,0 -1,0 -1,0 -1,0 0,0 0,0 0,-1l-7 -27 -1 0 -6 27c0,1 0,1 -1,1 0,0 0,0 0,0 0,0 -1,0 -1,0 0,0 -1,1 -1,1 -1,0 -1,-1 -2,-1 0,0 -1,0 -1,0 0,0 0,0 0,0 -1,0 -1,0 -1,-1l-9 -33c0,-1 0,-1 0,-1 0,-1 0,-1 0,-1 0,0 1,0 1,0 0,0 1,0 1,0 1,0 1,0 2,0 0,0 0,0 0,0 1,0 1,0 1,0 0,0 0,0 0,1l8 30 0 0 7 -30c0,0 0,-1 0,-1 0,0 1,0 1,0 0,0 0,0 0,0 1,0 1,0 2,0 0,0 1,0 1,0 0,0 0,0 1,0 0,0 0,0 0,0 0,0 0,1 0,1l8 30 0 0 8 -30c0,0 0,-1 0,-1 0,0 0,0 0,0 1,0 1,0 1,0 0,0 1,0 1,0 1,0 1,0 2,0 0,0 0,0 0,0 0,0 1,0 1,1 0,0 -1,0 -1,1l-9 33z"/>
  <path id="4" class="fil1" d="M253 50c0,0 0,0 0,1 0,0 0,0 0,0 0,0 0,0 0,0 -1,0 -1,1 -2,1 0,0 -1,-1 -1,-1 0,0 -1,0 -1,0 0,0 0,0 0,0 0,0 0,0 0,0l-3 -9 -15 0 -3 9c0,0 0,0 0,0 0,0 0,0 0,0 -1,0 -1,0 -1,0 0,0 -1,1 -1,1 -1,0 -1,-1 -2,-1 0,0 0,0 0,0 0,0 0,0 0,0 0,-1 0,-1 0,-1l11 -34c0,-1 1,-1 1,-1 0,0 0,0 0,0 0,0 1,0 1,0 0,0 1,0 1,0 1,0 1,0 2,0 0,0 0,0 1,0 0,0 0,0 0,0 0,0 0,0 1,1l11 34zm-15 -30l0 0 -6 18 12 0 -6 -18z"/>
  <path id="5" class="fil1" d="M273 17c0,0 0,1 0,1 0,0 0,0 0,0 0,1 0,1 0,1 0,0 0,0 -1,0l-9 0 0 32c0,0 0,0 0,0 0,0 -1,0 -1,0 0,0 0,0 -1,0 0,0 0,1 -1,1 0,0 0,-1 -1,-1 0,0 0,0 0,0 -1,0 -1,0 -1,0 0,0 0,0 0,0l0 -32 -10 0c0,0 0,0 0,0 0,0 0,0 0,-1 0,0 0,0 -1,0 0,0 0,-1 0,-1 0,0 0,-1 0,-1 1,0 1,-1 1,-1 0,0 0,0 0,0 0,0 0,0 0,0l24 0c1,0 1,0 1,0 0,0 0,0 0,0 0,0 0,1 0,1 0,0 0,1 0,1z"/>
  <path id="6" class="fil1" d="M297 46c0,0 0,1 0,1 0,0 0,0 0,1 0,0 0,0 0,0 0,0 0,0 0,0 -1,1 -1,1 -1,1 -1,1 -2,1 -3,1 0,1 -1,1 -3,1 -1,1 -2,1 -3,1 -2,0 -4,-1 -6,-1 -2,-1 -4,-2 -5,-4 -1,-1 -2,-3 -3,-6 -1,-2 -1,-4 -1,-7 0,-3 0,-6 1,-9 1,-2 2,-4 3,-6 2,-1 3,-2 5,-3 2,-1 4,-2 6,-2 1,0 2,0 3,1 1,0 2,0 3,0 1,1 1,1 2,1 1,1 1,1 1,1 1,1 1,1 1,1 0,0 0,0 0,0 0,1 0,1 0,1 0,0 0,1 0,1 0,0 0,1 0,1 0,0 0,0 0,1 0,0 0,0 0,0 0,0 -1,0 -1,0 0,0 0,0 -1,0 0,-1 -1,-1 -1,-2 -1,0 -2,-1 -3,-1 -1,0 -2,0 -4,0 -1,0 -3,0 -4,1 -1,0 -2,1 -3,2 -1,2 -2,3 -2,5 -1,2 -1,4 -1,6 0,3 0,5 1,6 0,2 1,4 2,5 1,1 2,2 3,3 1,0 3,1 4,1 2,0 3,-1 4,-1 1,0 2,-1 3,-1 0,-1 1,-1 1,-1 1,-1 1,-1 2,-1 0,0 0,0 0,0 0,0 0,0 0,0 0,1 0,1 0,1 0,0 0,1 0,1z"/>
  <path id="7" class="fil1" d="M325 51c0,0 0,0 0,0 0,0 0,0 0,0 0,0 -1,0 -1,0 0,0 -1,1 -1,1 0,0 -1,-1 -1,-1 0,0 -1,0 -1,0 0,0 0,0 0,0 0,0 0,0 0,0l0 -17 -16 0 0 17c0,0 0,0 0,0 0,0 0,0 -1,0 0,0 0,0 0,0 -1,0 -1,1 -1,1 -1,0 -1,-1 -1,-1 -1,0 -1,0 -1,0 0,0 -1,0 -1,0 0,0 0,0 0,0l0 -35c0,-1 0,-1 0,-1 0,0 1,0 1,0 0,0 0,0 1,0 0,0 0,0 1,0 0,0 0,0 1,0 0,0 0,0 0,0 1,0 1,0 1,0 0,0 0,0 0,1l0 14 16 0 0 -14c0,-1 0,-1 0,-1 0,0 0,0 0,0 0,0 1,0 1,0 0,0 1,0 1,0 0,0 1,0 1,0 0,0 1,0 1,0 0,0 0,0 0,0 0,0 0,0 0,1l0 35z"/>
  <path id="8" class="fil1" d="M337 48c0,2 -1,2 -1,3 0,0 -1,1 -2,1 -1,0 -2,-1 -3,-1 0,-1 0,-1 0,-3 0,-1 0,-2 0,-2 1,-1 2,-1 3,-1 1,0 2,0 2,1 0,0 1,1 1,2z"/>
  <path id="9" class="fil1" d="M369 33c0,3 -1,5 -1,8 -1,2 -2,4 -4,6 -1,1 -3,2 -5,3 -2,1 -5,1 -8,1l-7 0c-1,0 -1,0 -1,0 -1,0 -1,-1 -1,-2l0 -32c0,-1 0,-1 1,-2 0,0 0,0 1,0l8 0c3,0 5,0 7,1 2,1 4,2 6,4 1,1 2,3 3,5 0,2 1,5 1,8zm-5 0c0,-2 0,-4 -1,-6 0,-1 -1,-3 -2,-4 -1,-1 -2,-2 -4,-3 -1,-1 -3,-1 -6,-1l-4 0 0 28 5 0c2,0 4,0 5,-1 2,0 3,-1 4,-2 1,-1 2,-3 2,-5 1,-2 1,-4 1,-6z"/>
  <path id="10" class="fil1" d="M402 33c0,3 0,5 -1,8 -1,2 -2,4 -3,6 -1,1 -3,3 -5,4 -2,0 -4,1 -7,1 -3,0 -5,-1 -7,-1 -2,-1 -3,-2 -4,-4 -2,-2 -3,-3 -3,-6 -1,-2 -1,-5 -1,-8 0,-3 0,-5 1,-8 1,-2 2,-4 3,-6 1,-1 3,-2 5,-3 2,-1 4,-2 7,-2 2,0 5,1 6,2 2,0 4,1 5,3 1,2 2,4 3,6 1,2 1,5 1,8zm-5 0c0,-2 0,-4 -1,-6 0,-2 0,-3 -1,-4 -1,-2 -2,-3 -4,-3 -1,-1 -3,-2 -5,-2 -2,0 -3,1 -5,2 -1,0 -2,1 -3,3 -1,1 -1,3 -2,4 0,2 0,4 0,6 0,2 0,4 0,6 1,2 1,3 2,5 1,1 2,2 3,3 2,0 3,1 5,1 2,0 4,-1 5,-2 2,0 3,-1 4,-3 1,-1 1,-3 1,-4 1,-2 1,-4 1,-6z"/>
  <path id="11" class="fil1" d="M429 46c0,0 0,1 0,1 0,0 0,0 0,1 0,0 0,0 0,0 0,0 0,0 0,0 -1,1 -1,1 -2,1 0,1 -1,1 -2,1 -1,1 -1,1 -3,1 -1,1 -2,1 -3,1 -2,0 -4,-1 -6,-1 -2,-1 -4,-2 -5,-4 -1,-1 -2,-3 -3,-6 -1,-2 -1,-4 -1,-7 0,-3 0,-6 1,-9 1,-2 2,-4 3,-6 2,-1 3,-2 5,-3 2,-1 4,-2 6,-2 1,0 2,0 3,1 1,0 2,0 3,0 1,1 1,1 2,1 1,1 1,1 1,1 1,1 1,1 1,1 0,0 0,0 0,0 0,1 0,1 0,1 0,0 0,1 0,1 0,0 0,1 0,1 0,0 0,0 0,1 0,0 0,0 0,0 0,0 -1,0 -1,0 0,0 0,0 -1,0 0,-1 -1,-1 -1,-2 -1,0 -2,-1 -3,-1 -1,0 -2,0 -4,0 -1,0 -3,0 -4,1 -1,0 -2,1 -3,2 -1,2 -2,3 -2,5 -1,2 -1,4 -1,6 0,3 0,5 1,6 0,2 1,4 2,5 1,1 2,2 3,3 1,0 3,1 4,1 2,0 3,-1 4,-1 1,0 2,-1 3,-1 0,-1 1,-1 1,-1 1,-1 1,-1 2,-1 0,0 0,0 0,0 0,0 0,0 0,0 0,1 0,1 0,1 0,0 0,1 0,1z"/>
  <path id="12" class="fil1" d="M451 41c0,2 0,3 -1,5 -1,1 -1,2 -2,3 -2,1 -3,2 -4,2 -2,1 -3,1 -5,1 -1,0 -2,0 -3,0 -1,-1 -2,-1 -3,-1 -1,-1 -1,-1 -2,-1 0,0 -1,-1 -1,-1 0,0 0,-1 0,-1 0,0 0,-1 0,-1 0,-1 0,-1 0,-1 0,-1 0,-1 0,-1 0,0 0,0 0,0 0,0 0,0 0,0 1,0 1,0 2,0 0,0 1,1 1,1 1,1 2,1 3,1 1,1 2,1 3,1 1,0 2,0 3,-1 1,0 2,0 2,-1 1,0 1,-1 2,-2 0,-1 0,-1 0,-2 0,-1 0,-2 -1,-3 0,-1 -1,-1 -1,-2 -1,-1 -2,-1 -3,-1 -1,-1 -2,-1 -3,-2 -1,0 -2,-1 -3,-1 -1,-1 -1,-2 -2,-3 -1,0 -1,-1 -2,-2 0,-1 -1,-3 -1,-4 0,-2 1,-3 1,-4 1,-1 2,-2 2,-3 1,-1 3,-2 4,-2 1,0 2,-1 4,-1 1,0 2,0 2,1 1,0 2,0 2,0 1,0 2,1 2,1 1,0 1,0 1,1 1,0 1,0 1,0 0,0 0,0 0,0 0,1 0,1 0,1 0,0 0,0 0,1 0,0 0,0 0,1 0,0 0,0 0,0 0,1 0,1 0,1 -1,0 -1,0 -1,0 0,0 0,0 -1,0 0,-1 -1,-1 -1,-1 -1,-1 -2,-1 -2,-1 -1,-1 -2,-1 -3,-1 -1,0 -2,0 -3,1 0,0 -1,0 -1,1 -1,0 -1,1 -2,1 0,1 0,2 0,2 0,1 0,2 1,3 0,1 1,1 2,2 0,1 1,1 2,2 1,0 2,0 3,1 1,0 2,1 3,2 1,0 2,1 2,2 1,0 2,1 2,2 1,1 1,3 1,4z"/>
  <path class="fil0" d="M67 17c8,0 15,6 18,13l3 0c1,0 1,0 1,1l0 11c0,0 0,1 -1,1l-3 0c-3,7 -10,12 -18,12 -10,0 -19,-8 -19,-19 0,-3 1,-6 2,-8l-11 0c1,2 2,5 2,8 0,11 -9,19 -19,19 -8,0 -15,-5 -18,-12l-3 0c-1,0 -1,-1 -1,-1l0 -11c0,-1 0,-1 1,-1l3 0c3,-7 10,-12 18,-12 6,0 11,2 14,6l17 0 0 0c3,-4 8,-7 14,-7zm-45 4c8,0 15,7 15,15 0,9 -7,15 -15,15 -8,0 -15,-6 -15,-15 0,-8 7,-15 15,-15zm45 0c8,0 15,7 15,15 0,9 -7,15 -15,15 -8,0 -15,-6 -15,-15 0,-8 7,-15 15,-15z"/>
 </g>
</svg>
